# xmcd
#
# Track frame offsets:
#	150
#	16116
#	35252
#	51512
#	65664
#	79618
#	95494
#	110605
#	129599
#	148254
#	167795
#	181399
#	198365
#
# Disc length: 2865 seconds
#
# Revision: 0
# Processed by: cddbd v1.5.2PL0 Copyright (c) Steve Scherf et al.
# Submitted via: dBpowerAMP V4.0
#
DISCID=b60b2f0d
DTITLE=Laura Bryna - Trying to Be Me
DYEAR=2007
DGENRE=Country
TTITLE0=Life is Good
TTITLE1=Maybe She Fell
TTITLE2=Set it On Fire
TTITLE3=Room
TTITLE4=Same Dog
TTITLE5=Make A Wish
TTITLE6=Out the Window
TTITLE7=640 Battlefield Dr.
TTITLE8=According to the Radio
TTITLE9=She Can`t Save Him
TTITLE10=No Man`s Land
TTITLE11=Smoke From A Bridge You Burned
TTITLE12=Bonus Track
EXTD=
EXTT0=
EXTT1=
EXTT2=
EXTT3=
EXTT4=
EXTT5=
EXTT6=
EXTT7=
EXTT8=
EXTT9=
EXTT10=
EXTT11=
EXTT12=
PLAYORDER=
